<svg xmlns="http://www.w3.org/2000/svg" xmlns:xlink="http://www.w3.org/1999/xlink" viewBox="0 0 384 392"><defs><style>.cls-1,.cls-3{fill:none;}.cls-2{fill:#42210b;}.cls-3,.cls-4{stroke:#fff;}.cls-10,.cls-3,.cls-4,.cls-8,.cls-9{stroke-miterlimit:10;}.cls-3{stroke-width:4px;}.cls-4{fill:#603813;stroke-width:5px;}.cls-5{clip-path:url(#clip-path);}.cls-6{fill:#5c4033;}.cls-7{fill:#6f4e37;}.cls-8,.cls-9{fill:#ff80c4;}.cls-10,.cls-8,.cls-9{stroke:#1d1d1b;}.cls-10,.cls-8{stroke-width:16px;}.cls-9{stroke-width:10px;}.cls-10{fill:#ffff80;}.cls-11{clip-path:url(#clip-path-2);}.cls-12{fill:#c1272d;}.cls-13{font-size:50.44px;fill:#fff;font-family:OpenSans-SemiBold, Open Sans;font-weight:600;}</style><clipPath id="clip-path" transform="translate(-350 -15)"><circle class="cls-1" cx="537" cy="200.78" r="148.25"/></clipPath><clipPath id="clip-path-2" transform="translate(-350 -15)"><circle class="cls-1" cx="537.25" cy="200.36" r="148.25"/></clipPath></defs><g id="Layer_9" data-name="Layer 9"><g id="Outer_part" data-name="Outer part"><path class="cls-2" d="M701.64,199.89c0-6.86,6.29-14,5.49-20.67s-8.64-12.26-10.24-18.77,2.76-15.09.37-21.38-11.32-9.79-14.46-15.76S681.86,108,678,102.47s-13.33-6.77-17.81-11.83S655.67,76,650.6,71.54s-14.54-3.4-20.12-7.25S622.6,51.19,616.59,48s-14.9.19-21.27-2.23S584.56,35,577.93,33.36s-14.38,3.78-21.17,3-13-7.91-19.87-7.91S523.67,35.53,517,36.33s-14.66-4.57-21.18-3-11.1,10.06-17.39,12.44-15.3-.91-21.27,2.23-8.33,12.42-13.88,16.26-15.06,2.76-20.12,7.25-5.12,14-9.61,19.1-14,6.25-17.81,11.83-1.62,14.83-4.78,20.85-12.05,9.38-14.46,15.75,2,14.75.37,21.38-9.43,12-10.24,18.77,5.49,13.81,5.49,20.67-6.29,14-5.49,20.67,8.64,12.25,10.24,18.77-2.76,15.09-.37,21.38,11.32,9.79,14.46,15.75.94,15.29,4.78,20.85,13.32,6.77,17.81,11.83,4.54,14.61,9.61,19.1,14.54,3.39,20.12,7.25,7.87,13.1,13.89,16.26,14.9-.19,21.26,2.22,10.77,10.82,17.39,12.45,14.39-3.78,21.18-3,13,7.91,19.87,7.91,13.22-7.11,19.87-7.91,14.66,4.57,21.17,3S589,356.36,595.33,354s15.3.92,21.26-2.22,8.34-12.42,13.89-16.26,15.06-2.76,20.12-7.25,5.12-14,9.61-19.1,13.95-6.26,17.81-11.84,1.62-14.83,4.78-20.84,12.05-9.39,14.46-15.75-2-14.76-.37-21.38,9.42-12,10.24-18.77S701.64,206.75,701.64,199.89Z" transform="translate(-350 -15)"/><path class="cls-3" d="M701.64,199.89c0-6.86,6.29-14,5.49-20.67s-8.64-12.26-10.24-18.77,2.76-15.09.37-21.38-11.32-9.79-14.46-15.76S681.86,108,678,102.47s-13.33-6.77-17.81-11.83S655.67,76,650.6,71.54s-14.54-3.4-20.12-7.25S622.6,51.19,616.59,48s-14.9.19-21.27-2.23S584.56,35,577.93,33.36s-14.38,3.78-21.17,3-13-7.91-19.87-7.91S523.67,35.53,517,36.33s-14.66-4.57-21.18-3-11.1,10.06-17.39,12.44-15.3-.91-21.27,2.23-8.33,12.42-13.88,16.26-15.06,2.76-20.12,7.25-5.12,14-9.61,19.1-14,6.25-17.81,11.83-1.62,14.83-4.78,20.85-12.05,9.38-14.46,15.75,2,14.75.37,21.38-9.43,12-10.24,18.77,5.49,13.81,5.49,20.67-6.29,14-5.49,20.67,8.64,12.25,10.24,18.77-2.76,15.09-.37,21.38,11.32,9.79,14.46,15.75.94,15.29,4.78,20.85,13.32,6.77,17.81,11.83,4.54,14.61,9.61,19.1,14.54,3.39,20.12,7.25,7.87,13.1,13.89,16.26,14.9-.19,21.26,2.22,10.77,10.82,17.39,12.45,14.39-3.78,21.18-3,13,7.91,19.87,7.91,13.22-7.11,19.87-7.91,14.66,4.57,21.17,3S589,356.36,595.33,354s15.3.92,21.26-2.22,8.34-12.42,13.89-16.26,15.06-2.76,20.12-7.25,5.12-14,9.61-19.1,13.95-6.26,17.81-11.84,1.62-14.83,4.78-20.84,12.05-9.39,14.46-15.75-2-14.76-.37-21.38,9.42-12,10.24-18.77S701.64,206.75,701.64,199.89Z" transform="translate(-350 -15)"/></g><circle class="cls-4" cx="187.25" cy="185.25" r="148.25"/></g><g id="Layer_11" data-name="Layer 11"><g class="cls-5"><rect class="cls-6" x="30" width="47" height="372"/><rect class="cls-7" x="68.54" y="9.78" width="47" height="372"/><rect class="cls-6" x="114" y="29" width="47" height="353"/><rect class="cls-7" x="159" y="10" width="47" height="372"/><rect class="cls-6" x="206" y="5" width="47" height="372"/><rect class="cls-7" x="253" y="20" width="47" height="372"/><rect class="cls-6" x="297" y="17" width="47" height="372"/></g></g><g id="Cake"><path class="cls-8" d="M584.05,232.82l-80.12,2.25q-17.12-6.76-34.44-13.48-19.55-7.59-38.94-15c-.07-2-.7-37.06,29.21-56.9,30.26-20.08,62.76-5.27,64.39-4.49l67.38,36.89a77.68,77.68,0,0,0-5.2,12.56A81,81,0,0,0,584.05,232.82Z" transform="translate(-350 -15)"/><path class="cls-8" d="M522.65,163.19c-74-10.66-78-22.69-78.62-26.21-.7-4,7.52-13.42,24-32.19,16.59-19,24.28-25.46,34.44-29.95a77.85,77.85,0,0,1,18-5.24c9.12-1.75,18.07-3.47,20.22,0,2.78,4.48-9.39,12-7.49,21.71,1.45,7.41,10.17,11.57,15.73,14.22,12.56,6,17.21,1.78,32.19,6.74,5.76,1.91,15,5.07,23.21,13.48a51.27,51.27,0,0,1,13.48,44.92A739.23,739.23,0,0,1,522.65,163.19Z" transform="translate(-350 -15)"/><path class="cls-8" d="M522.65,206.61c-27.17-8.82-45.75-20.75-56.9-29.2-10-7.6-17.4-14.28-21-24.7-1.09-3.18-5.61-16.38,1.5-27,3.21-4.77,9.54-10.13,16.47-9.73,5,.28,8.51,3.44,9.73,4.49,15,12.86,53.19,26.51,74.13,31.45,1.25.29-.29-.09,50.16,7.48,16.47,2.48,24.81,3.83,30,9.74,10.84,12.43,3.08,35,.75,41.18Z" transform="translate(-350 -15)"/><path class="cls-9" d="M634.21,140" transform="translate(-350 -15)"/><path class="cls-9" d="M638,174.42" transform="translate(-350 -15)"/><path class="cls-8" d="M481.47,90.56" transform="translate(-350 -15)"/></g><g id="Base"><path class="cls-10" d="M602.89,312H468.26c-7.37,0-15.09-5.14-17.36-11.8l-28.68-84c-3.05-8.92-1.39-17,3.69-21.07a13.9,13.9,0,0,1,8.27-2.72c13.38-.72,23.18,4.21,30.07,6.25,16.3,4.81,18.63-5.91,43.81-6.25,23-.3,22.76,8.64,43.79,7,20-1.54,22.92-9.81,39.18-7,12.75,2.18,16.9,8.28,26.71,5.47,6.38-1.83,10.76-6.17,19.22-5.47,2.35.2,5.53.53,8.28,2.72,5.08,4,6.73,12.15,3.69,21.07l-28.68,84C618,306.86,610.25,312,602.89,312Z" transform="translate(-350 -15)"/></g><g id="Layer_10" data-name="Layer 10"><g class="cls-11"><rect class="cls-12" y="206" width="384" height="72" rx="17.08"/><text class="cls-13" transform="translate(64.43 256.67) scale(0.77 1)">GET BAKING!</text></g></g></svg>